<svg width="24" height="25" viewBox="0 0 24 25" fill="none" xmlns="http://www.w3.org/2000/svg">
<path opacity="0.5" fill-rule="evenodd" clip-rule="evenodd" d="M11.999 3.86084C8.68902 3.86084 5.99902 6.55084 5.99902 9.86084C5.99902 13.4008 9.81902 18.7208 11.999 21.3308C13.749 19.2208 17.999 13.7008 17.999 9.86084C17.999 6.55084 15.309 3.86084 11.999 3.86084ZM9.94902 13.3508H8.50902V11.9108L12.439 7.99084L13.869 9.42084L9.94902 13.3508ZM14.589 8.71084L15.289 8.01084C15.439 7.86084 15.439 7.62084 15.289 7.47084L14.389 6.57084C14.239 6.42084 13.999 6.42084 13.849 6.57084L13.149 7.27084L14.589 8.71084Z" fill="#15C18D" fill-opacity="0.5"/>
<path fill-rule="evenodd" clip-rule="evenodd" d="M3.99902 9.86084C3.99902 5.45084 7.58902 1.86084 11.999 1.86084C16.409 1.86084 19.999 5.45084 19.999 9.86084C19.999 15.4308 13.039 23.2008 12.739 23.5308L11.999 24.3508L11.259 23.5308C10.959 23.2008 3.99902 15.4308 3.99902 9.86084ZM5.99902 9.86084C5.99902 13.4008 9.81902 18.7208 11.999 21.3308C13.749 19.2208 17.999 13.6908 17.999 9.86084C17.999 6.55084 15.309 3.86084 11.999 3.86084C8.68902 3.86084 5.99902 6.55084 5.99902 9.86084Z" fill="#15C18D" fill-opacity="0.5"/>
<path d="M8.50879 11.9107V13.3507H9.94879L13.8688 9.42072L12.4388 7.99072L8.50879 11.9107Z" fill="#15C18D" fill-opacity="0.5"/>
<path d="M14.3894 6.57075C14.2394 6.42075 13.9994 6.42075 13.8494 6.57075L13.1494 7.27075L14.5894 8.71075L15.2894 8.01075C15.4394 7.86075 15.4394 7.62075 15.2894 7.47075L14.3894 6.57075Z" fill="#15C18D" fill-opacity="0.5"/>
</svg>
