<svg width="25" height="25" viewBox="0 0 25 25" fill="none" xmlns="http://www.w3.org/2000/svg">
<path opacity="0.5" fill-rule="evenodd" clip-rule="evenodd" d="M4.53809 19.2808H18.5381V5.28076H4.53809V19.2808ZM12.5381 7.28076H16.5381V10.2808H12.5381V7.28076ZM16.5381 11.2808H12.5381V17.2808H16.5381V11.2808ZM6.53809 7.28076H11.5381V12.2808H6.53809V7.28076ZM11.5381 13.2808H6.53809V17.2808H11.5381V13.2808Z" fill="#15C18D" fill-opacity="0.5"/>
<path d="M6.53809 13.2808H11.5381V17.2808H6.53809V13.2808Z" fill="#15C18D" fill-opacity="0.5"/>
<path d="M6.53809 7.28076H11.5381V12.2808H6.53809V7.28076Z" fill="#15C18D" fill-opacity="0.5"/>
<path d="M12.5381 7.28076H16.5381V10.2808H12.5381V7.28076Z" fill="#15C18D" fill-opacity="0.5"/>
<path d="M12.5381 11.2808H16.5381V17.2808H12.5381V11.2808Z" fill="#15C18D" fill-opacity="0.5"/>
<path fill-rule="evenodd" clip-rule="evenodd" d="M22.5381 7.28076V9.28076H20.5381V11.2808H22.5381V13.2808H20.5381V15.2808H22.5381V17.2808H20.5381V19.2808C20.5381 20.3808 19.6381 21.2808 18.5381 21.2808H4.53809C3.43809 21.2808 2.53809 20.3808 2.53809 19.2808V5.28076C2.53809 4.18076 3.43809 3.28076 4.53809 3.28076H18.5381C19.6381 3.28076 20.5381 4.18076 20.5381 5.28076V7.28076H22.5381ZM4.53809 19.2808H18.5381V5.28076H4.53809V19.2808Z" fill="#15C18D" fill-opacity="0.5"/>
</svg>
